<?xml version="1.0" encoding="utf-8"?><!-- Uploaded to: SVG Repo, www.svgrepo.com, Generator: SVG Repo Mixer Tools -->
<svg fill="#000000" width="800px" height="800px" viewBox="0 0 24 24" id="schedule-left" data-name="Flat Line" xmlns="http://www.w3.org/2000/svg" class="icon flat-line"><path id="secondary" d="M3,15l7,1L9,21H20a1,1,0,0,0,1-1V9H3Z" style="fill: rgb(44, 169, 188); stroke-width: 2;"></path><path id="primary" d="M10,16,9,21,3,15ZM3,5V15l6,6H20a1,1,0,0,0,1-1V5a1,1,0,0,0-1-1H4A1,1,0,0,0,3,5ZM3,5V9H21V5a1,1,0,0,0-1-1H4A1,1,0,0,0,3,5ZM7,3V5m5-2V5m5-2V5" style="fill: none; stroke: rgb(0, 0, 0); stroke-linecap: round; stroke-linejoin: round; stroke-width: 2;"></path></svg>